/* XPM */ 
static const unsigned char * bersirc_xpm[] = {
"16 16 10 1",
" 	c None",
"!	c black",
"#	c #808080",
"$	c #C0C0C0",
"%	c white",
"&	c #0000FF",
"'	c #00FFFF",
"(	c #008080",
")	c #000080",
"*	c #FF0000",
"      ########  ",
"     #$$$$$$$#! ",
"#########!%%##! ",
"#&&&&&&###$$#!! ",
"#######$$$!!!#! ",
"#%%%#'%'%'#(!#! ",
"#%###%%$$%#%!!! ",
"#%%#%'%'%'#'(!! ",
"#%##'%$$$%#%(!! ",
"#%%#%'%'%'#'(!! ",
"!!!!!######%!#! ",
"    !(%'%'%(#!! ",
"     !!(((!!%$) ",
"     #$!!!*##'&)",
"     #$$$$$$!&'!",
"      !!!!!!!!! "};